<svg width="1440" height="820" viewBox="0 0 1440 820" fill="none" xmlns="http://www.w3.org/2000/svg">
<g clip-path="url(#clip0_61385:101)">
<rect width="1440" height="820" fill="#220101"/>
<circle cx="881" cy="-137" r="559" transform="rotate(-180 881 -137)" fill="url(#paint0_radial_61385:101)"/>
<circle cx="559" cy="-137" r="559" transform="rotate(-180 559 -137)" fill="url(#paint1_radial_61385:101)"/>
<rect x="541" y="140" width="358" height="631" fill="#261616"/>
<mask id="mask0_61385:101" style="mask-type:alpha" maskUnits="userSpaceOnUse" x="541" y="140" width="358" height="528">
<rect x="541" y="140" width="358" height="528" fill="#202024"/>
</mask>
<g mask="url(#mask0_61385:101)">
<path d="M899 200.126V-248.006L719.5 -348.889L540 -248.006V200.126L719.5 301.015L899 200.126Z" fill="url(#paint2_linear_61385:101)"/>
<g style="mix-blend-mode:luminosity" opacity="0.4">
<path d="M541.801 100.253V200.778L631.101 251.045L720.4 200.778V100.253L631.101 49.9857L541.801 100.253Z" fill="url(#paint3_linear_61385:101)"/>
<path d="M541.801 -0.276936V100.248L631.101 150.515L720.4 100.248V-0.276936L631.101 -50.5442L541.801 -0.276936Z" fill="url(#paint4_linear_61385:101)"/>
<path d="M720.4 200.777V100.253L809.7 49.9853L899 100.253V200.777L809.7 251.045L720.4 200.777Z" fill="url(#paint5_linear_61385:101)"/>
<path d="M899 -0.276936V100.248L809.7 150.515L720.4 100.248V-0.276936L809.7 -50.5442L899 -0.276936Z" fill="url(#paint6_linear_61385:101)"/>
<path d="M809.7 251.066V150.541L720.4 100.274L631.101 150.541V251.066L720.4 301.333L809.7 251.066Z" fill="url(#paint7_linear_61385:101)"/>
</g>
</g>
<rect x="680" y="156" width="80" height="8" fill="#121214"/>
<rect x="688" width="64" height="158" fill="url(#paint8_linear_61385:101)"/>
</g>
<defs>
<radialGradient id="paint0_radial_61385:101" cx="0" cy="0" r="1" gradientUnits="userSpaceOnUse" gradientTransform="translate(881 -137) rotate(90) scale(559)">
<stop stop-color="#C69A00"/>
<stop offset="1" stop-color="#121214" stop-opacity="0"/>
</radialGradient>
<radialGradient id="paint1_radial_61385:101" cx="0" cy="0" r="1" gradientUnits="userSpaceOnUse" gradientTransform="translate(559 -137) rotate(90) scale(559)">
<stop stop-color="#FF0000"/>
<stop offset="1" stop-color="#121214" stop-opacity="0"/>
</radialGradient>
<linearGradient id="paint2_linear_61385:101" x1="540" y1="-333.473" x2="979.601" y2="-271.595" gradientUnits="userSpaceOnUse">
<stop stop-color="#FF0000"/>
<stop offset="0.364583" stop-color="#761517"/>
<stop offset="1" stop-color="#FFCD1E"/>
</linearGradient>
<linearGradient id="paint3_linear_61385:101" x1="631.101" y1="246.422" x2="545.127" y2="96.3714" gradientUnits="userSpaceOnUse">
<stop stop-color="#8257E5"/>
<stop offset="1" stop-color="#FF008E" stop-opacity="0"/>
</linearGradient>
<linearGradient id="paint4_linear_61385:101" x1="631.101" y1="145.892" x2="545.127" y2="-4.15841" gradientUnits="userSpaceOnUse">
<stop stop-color="#8257E5"/>
<stop offset="1" stop-color="#FF008E" stop-opacity="0"/>
</linearGradient>
<linearGradient id="paint5_linear_61385:101" x1="899" y1="206.427" x2="722.838" y2="97.7068" gradientUnits="userSpaceOnUse">
<stop stop-color="#FF008E" stop-opacity="0"/>
<stop offset="1" stop-color="#FFCD1E"/>
</linearGradient>
<linearGradient id="paint6_linear_61385:101" x1="809.7" y1="145.892" x2="895.673" y2="-4.1584" gradientUnits="userSpaceOnUse">
<stop stop-color="#8257E5"/>
<stop offset="1" stop-color="#FF008E" stop-opacity="0"/>
</linearGradient>
<linearGradient id="paint7_linear_61385:101" x1="720.4" y1="104.897" x2="806.374" y2="254.947" gradientUnits="userSpaceOnUse">
<stop stop-color="#8257E5"/>
<stop offset="1" stop-color="#FF008E" stop-opacity="0"/>
</linearGradient>
<linearGradient id="paint8_linear_61385:101" x1="649.5" y1="4.93019e-08" x2="782" y2="158" gradientUnits="userSpaceOnUse">
<stop stop-color="#BE0000"/>
<stop offset="1" stop-color="#FFCD1E"/>
</linearGradient>
<clipPath id="clip0_61385:101">
<rect width="1440" height="820" fill="white"/>
</clipPath>
</defs>
</svg>
